<?xml version="1.0" encoding="UTF-8" standalone="no"?>
<svg style="enable-background:new 0 0 275 54" xmlns="http://www.w3.org/2000/svg" xml:space="preserve" viewBox="0 0 275 54" version="1.1" y="0" x="0" xmlns:xlink="http://www.w3.org/1999/xlink">
	<style type="text/css">.l0{fill:#FFF;}</style>
	<polygon points="240 0 255 31 239 54 250 54 275 20 264 0" class="l0"/>
	<path class="l0" d="m36 0l-14 21 16 33h-27l-11-21 26-33h10z"/>
	<path class="l0" d="m236 54l4-6h-14v-48h-9v48c0 3.2 2 6 4 6h15z"/>
	<path class="l0" d="m208 28c1.8 0 3-4 3-7h-13v7h10z"/>
	<path class="l0" d="m196 48v-42h15c2.1 0 3-4.1 3-6h-27v54h24c2.1 0 3-4.1 3-6h-18z"/>
	<path class="l0" d="m172 21h-16v-21h-9v54h5c2 0 4-2.8 4-6v-20h16v-7z"/>
	<path class="l0" d="m174 54h9v-54h-5c-2 0-4 2.8-4 6v48z"/>
	<path class="l0" d="m141 6c2.1 0 3-4.1 3-6h-35c-2.1 0-3 4.1-3 6h14v48h9v-48h12z"/>
	<path class="l0" d="m97 28c1.8 0 3-4 3-7h-13v7h10z"/>
	<path class="l0" d="m85 48v-42h15c2.1 0 3-4.1 3-6h-27v54h24c2.1 0 3-4.1 3-6h-18z"/>
	<path class="l0" d="m61 24c5.5 0 9-5.4 9-12s-4.5-12-10-12h-19v54h21c6.1 0 11-6.7 11-15s-5.9-15-12-15zm-5 4c3.9 0.4 7 4.9 7 10.5 0 5.8-3.9 10.5-8 10.5h-5v-44h5c2.8 0 5 3.6 5 8s-2 8-4.8 8h-3.2v7h4z"/>
</svg>
